# xmcd CD database file
#
# Track frame offsets:
#	150
#	16520
#	26505
#	47532
#	67385
#	79372
#	90750
#	104535
#	121882
#	135447
#	155582
#	167730
#	179312
#	190920
#	208195
#
# Disc length: 2969 seconds
#
# Revision: 0
# Processed by: cddbd v1.5.1PL2 Copyright (c) Steve Scherf et al.
# Submitted via: CDex 1.70beta2
#
DISCID=c10b970f
DTITLE=Helander Blues Co. - Big Cold Beer
DYEAR=1995
DGENRE=Blues
TTITLE0=Early In The Morning
TTITLE1=Dreaming Of You
TTITLE2=Love That Burns
TTITLE3=Same Thing
TTITLE4=Two Headed Woman
TTITLE5=Trouble In Mind
TTITLE6=Snatch It Back And Hold It
TTITLE7=This Is The Blues
TTITLE8=Jump In My Cadillac
TTITLE9=KDO-Phosphate Blues
TTITLE10=That's What You Do To Me
TTITLE11=Rollin' Man
TTITLE12=Give Me My Coat And Shoes
TTITLE13=Me And The Devil Blues
TTITLE14=Big Cold Beer
EXTD=YEAR: 1995
EXTT0=
EXTT1=
EXTT2=
EXTT3=
EXTT4=
EXTT5=
EXTT6=
EXTT7=
EXTT8=
EXTT9=
EXTT10=
EXTT11=
EXTT12=
EXTT13=
EXTT14=
PLAYORDER=
